<svg id="Layer_1" data-name="Layer 1" xmlns="http://www.w3.org/2000/svg" xmlns:xlink="http://www.w3.org/1999/xlink" viewBox="0 0 3265.04 762.38"><defs><style>.cls-1{fill:#3a8bca;}.cls-2{fill:#3b8bca;}</style><image id="image" width="600" height="1253" xlink:href="../../../../gu/SABRINA/illustratartion/finals/2.png"/></defs><use transform="translate(263.12 339.79) scale(0.3)" xlink:href="#image"/><use transform="matrix(-0.3, 0, 0, 0.3, 259.4, 347.25)" xlink:href="#image"/><path class="cls-1" d="M1454.19,108.81l4.94-18.2c.32-2.41.77-4,1.33-4.64a2.45,2.45,0,0,1,1.93-1q2.16,0,4.94,5.18a16.59,16.59,0,0,0,3.37,4.76,8.33,8.33,0,0,0,3.86,1.39l1.2-.13,5.19.49,28.44.36,33.62-.12h9.88l18.68-.35a25.27,25.27,0,0,1,3,.23c5.47.48,8.84.72,10.13.72a3.73,3.73,0,0,0,2.89-1.18c.24-.31,1.57-3,4-8q1.56-3.39,3.85-3.39a8,8,0,0,1,2.41.48,17.85,17.85,0,0,1,.6,4.3l-.12,4.78.12,10.17q0,3.7-.6,23.92a5.83,5.83,0,0,1-.48,2.39,4.49,4.49,0,0,1-2.29.84,2.14,2.14,0,0,1-1.69-.9q-.72-.9-1.8-5.56-2.41-10.74-6-15.41a13.46,13.46,0,0,0-6.93-4.3q-4.51-1.3-21.63-1.31h-20.37q-.24,4.83-.24,8.8l1,74.91q0,4.45-.49,16.88L1537,221l-.12,8.92c0,2.82.49,4.83,1.45,6s3.57,2.37,7.83,3.5q11.08,2.77,14.83,3.38a11,11,0,0,1,3.73,1v3.62l-17.11-.43q-14.1-.12-21.21-.54l-17.6.85-12.89.72a50.42,50.42,0,0,1-6.63-.24l-1.69-.73c.16-1.84.53-3,1.09-3.55s2-.94,4.46-1.27a99.61,99.61,0,0,0,11.93-2.59q6.87-1.86,9-3.79a6.39,6.39,0,0,0,1.68-3.62q1.1-5.29,1.09-20.85V190.88l-.48-44.71-.49-9.64-.12-32.18h-19.4q-17.36,0-21.09,2.1-5.9,3.28-17.59,19.17-3.86,6-6.75,6l-1.09-.24a2.43,2.43,0,0,1-.48-1.32q0-1.46,1.93-8.68Q1453.72,112.07,1454.19,108.81Z"/><path class="cls-1" d="M1606.28,246.91l.12-2.65a25,25,0,0,1,9.52-2.89q8.55-1.08,10.85-2.23a6.82,6.82,0,0,0,3.25-3.2,20.58,20.58,0,0,0,1.69-8.08l-.25-9.16.13-8.45-.25-9.89q0-6.15.37-15.38t.36-9.82V142.23q0-7.84.36-16.95t.36-12.6q0-10.38-.48-12.06a3.76,3.76,0,0,0-1.81-2.41c-.88-.49-3.78-.93-8.68-1.33q-5.65-.48-7.83-.85a5.53,5.53,0,0,1-.6-2.17q0-1,.12-2.28c1.93-.16,3.41-.25,4.46-.25l11.33.12q12,0,25.54-1,6.63-.48,20-.84a9.44,9.44,0,0,1,.24,2,2.86,2.86,0,0,1-.54,1.86,3,3,0,0,1-1.87.91q-15.79,1.32-18.62,3.91t-2.83,13.2q0,19.53.6,40.25l.48,11.33q.6.48,15.67,1.2c2.73.17,4.34.24,4.82.24l17.72-.24,11.69.37,30.6-1a38.65,38.65,0,0,0,6.87-.48q.73-20.91.73-40.48,0-18.86-.85-22.22a4.15,4.15,0,0,0-1.68-2.76c-.49-.24-4.66-.88-12.54-1.92-1.36-.16-2.65-.36-3.85-.6a13.3,13.3,0,0,1-.61-4.2,49.08,49.08,0,0,1,5.19-.62l8,.43q11,.54,22,.53,7.11,0,23.62-1.2a22.72,22.72,0,0,1-.6,4.34,37.8,37.8,0,0,1-11,2.29,22.64,22.64,0,0,0-6.86,1.32q-2.29,1.69-2.29,6.87c0,.81,0,1.69.12,2.65.07,2.9.12,4.78.12,5.67v13.86l.12,8.67-.24,11.21.12,21-.24,19.76q0,5.91.36,18.44l-.12,16.27q0,8.2,1.44,11.69a4.42,4.42,0,0,0,2.41,2.41l9.76,2.17c4.82,1.2,7.7,2.19,8.62,2.95a3.45,3.45,0,0,1,1.39,2.71l-.36,1.45-.61.12a6.74,6.74,0,0,1-1.56-.24,152.51,152.51,0,0,0-27.6-2.41q-11.33,0-16.09.36t-19.82,2.65a15.43,15.43,0,0,1-.24-2.29,13.74,13.74,0,0,1,.24-2.29q3.74-2.16,11.81-3a15.85,15.85,0,0,0,9.52-3.86c1.52-1.44,2.29-3.57,2.29-6.38l-.12-17.36q.36-7.83.36-8.55,0-10.24-.36-29.89c-.24-1.12-.69-1.81-1.33-2.05q-3.26-1.08-32.06.48-5.78.36-8.67.36t-12.11-.3q-9.22-.3-17.06-.3-4.21,0-7.11.12l-6.14.12c-1.85,0-3.12.36-3.8,1.09s-1,2.05-1,4l.12,8.44q0,2.06-.6,22.78c-.09,2.81-.12,5.14-.12,7q0,16.5,1.2,21.93a5.25,5.25,0,0,0,2.17,3.49c.72.49,3.86,1.33,9.4,2.54a65.36,65.36,0,0,1,8.44,2.28l.72,1.21a1.14,1.14,0,0,1-.48,1,3.15,3.15,0,0,1-2,.61c-.65,0-1.41,0-2.29-.06s-2.61-.11-5.18-.18q-6.15-.14-15.31-.85-5.91-.48-10.48-.48-7.72,0-24.71.83C1609.65,246.87,1607.8,246.91,1606.28,246.91Z"/><path class="cls-1" d="M1795.24,243.15a5.77,5.77,0,0,1,2-1.3,37.76,37.76,0,0,1,7-1q11.68-.73,14.46-2.18a11.68,11.68,0,0,0,1.69-6.76l-.12-8.45.12-30.66-.25-14.48.13-30.3-.61-34.4q-.12-12.31-1.56-13.89-2.17-2.3-12.9-2.65a57,57,0,0,1-8.07-.72,2.49,2.49,0,0,1-1.57-2.17,5.69,5.69,0,0,1,.6-2.29,4.15,4.15,0,0,1,1.93-.61c1.13,0,2.49,0,4.1.12a143,143,0,0,0,14.7.73l8.92-.24,21.21.48q15.9,0,24.82-.36t12.06-.36q2.76,0,13.73.48l17.12-.12,2,.36,10-.36,1.2.6a6.8,6.8,0,0,1,.85,2,36.5,36.5,0,0,1-.55,5.18,41.61,41.61,0,0,0-.54,4.34q0,12.54.84,21.21a1.13,1.13,0,0,1-.7,1,7.37,7.37,0,0,1-2.37-.36A64,64,0,0,1,1922,118a93.32,93.32,0,0,0-6.7-13.38q-3-5.06-4.7-6t-7-1q-1.08,0-11-.24-2.65-.12-5.19-.12l-34.37.72h-3c-4.42,0-7.08.57-8,1.69q-2.05,2.89-2,17,0,1.45.6,28.92v16.76a11.05,11.05,0,0,0,2.89.36h2q2.06,0,6,.12c4.17.16,7,.24,8.43.24a23.2,23.2,0,0,0,2.53-.12q13-.48,33.51-.48c4.25-.73,6.75-1.57,7.47-2.54q1.8-2.16,2.71-11.32t4-10.37a6.81,6.81,0,0,1,2.89.61,7.44,7.44,0,0,1,.24,1.8,25.29,25.29,0,0,1-.24,2.77q-.6,4.47-.6,28,0,6.27.66,14t.66,8.32a15.58,15.58,0,0,1-.36,2.89,3.73,3.73,0,0,1-1.57.48h-.84a44.77,44.77,0,0,1-3.74-10.48q-3.12-12.18-6.56-15.25t-11.15-3.07c-1.13,0-3.17.06-6.15.18s-7.39.18-13.25.18h-7.84q-16.74,0-21.93.73l-.12,4,.12,22.21-.12,14,.12,13.64q.12,12.31,1.57,14.25c1.36,1.77,4.34,2.65,8.92,2.65l7.35-.12q1,0,7.53.18t16.21.19q23.25,0,31-2a26.87,26.87,0,0,0,12.71-7.07q5-5.08,12.6-21.89c1.52-3.3,3-5,4.58-5a4.29,4.29,0,0,1,2.41,1q-3.51,11.92-4,15.66a133.55,133.55,0,0,0-1.57,17.24,11,11,0,0,1-1.93,6.63h-2.65l-33.86.36-15.18-.12-36.16.48h-14.7c-1.85,0-3.58,0-5.18.12q-21.69,1-31.94,1a3.85,3.85,0,0,1-2.47-.58,2.27,2.27,0,0,1-.66-1.77Z"/><path class="cls-2" d="M133.41,599.19a9.26,9.26,0,0,1,4.51-1.45h4.16c.84,0,2.28-.06,4.33-.18q13.91-1.26,16.43-2.53,6.32-3.43,10.84-11.92,9.39-18.43,21.14-52.22,5.6-16.07,7.05-19.51,4.51-10.83,8.67-22.76l17-47.51q4-11.21,19.15-51.31,3.8-10.12,9.22-27.1l5.32-.36,6.32.18a250.49,250.49,0,0,1,13.71,33.06q3.24,9.39,10.65,28l27.42,74.25,14.62,40.29q11.56,34.33,15.18,42.19c2.4,5.23,4.63,8.7,6.68,10.38q.9.73,6.78,2.17T370.8,595a76.11,76.11,0,0,1,11.56,4,9.87,9.87,0,0,1,.72,3.08,10.57,10.57,0,0,1-.54,2.71q-5.79.18-8.13.18-9.21,0-32.52-.55l-18.07-.4-21.86.27c-1.44,0-2.92-.07-4.42-.2s-2.8-.21-3.89-.21h-4a9,9,0,0,1-3.61-1.08,13.32,13.32,0,0,1,.9-4.88,11.61,11.61,0,0,1,4-1.26l19-1.27q7.39-.36,11.2-2a17.29,17.29,0,0,0,1.08-4.89q0-3.25-4.7-16.83-3.24-9.06-5.68-17.2t-19.22-53.57a77.8,77.8,0,0,0-13-1.27l-38.66.36-11.39-.18a113.17,113.17,0,0,0-13.55.9q-2.36,5.43-3.07,7.77L197,558.17q-10.12,28.37-10.12,31.26a16.31,16.31,0,0,0,1.63,5.42,78.85,78.85,0,0,0,10.12,2L223.2,599c1.32,1.09,2,2,2,2.89a10.42,10.42,0,0,1-.54,2.71q-8.13.2-12.47.19-14.44,0-33.6-.91-8.85-.36-12.64-.36t-13.19.36q-6.15.36-8.86.36-4.33,0-11.2-.54v-1.08A11.71,11.71,0,0,1,133.41,599.19Zm86.2-108.4q19.33,1.08,44.08,1.08,14.1,0,24.76-.9a120.86,120.86,0,0,0-4.16-13.18q-11.73-31.43-13-34.68L254.88,401.4l-1.8-3.26q-1.08,2.17-8,18.61-11.58,28.17-16.64,43.88-2.35,7-4.89,14a94.05,94.05,0,0,0-3.16,9.76,32.48,32.48,0,0,1-1.9,5.69Z"/><path class="cls-2" d="M390.85,384l-.18-8.67q28,0,41-1.45,5.06-.54,7-.54c1.09,0,2.71.06,4.88.18A100,100,0,0,1,457.69,388c1,1.09,2.05,2.29,3.26,3.61l38.12,42.1,5.42,6.5q11.55,13.56,21,23.13t37,39.92l43.18,47.88q6.32,7.05,16.26,17.52l.18-2.89Q621,540.65,621,539.21l.73-10.84-.37-17v-7.76q0-7.41-1.26-45.71-.18-5.24-1.45-19.79t-1.26-25.56q0-19.87-2.35-23.12-1.62-2.35-15.36-4.88c-2.16-.12-5.54-.48-10.11-1.08q-8.13-.37-9.58-.91a6.49,6.49,0,0,1-2.89-3.07,16.54,16.54,0,0,1,1.63-5.42,33.68,33.68,0,0,1,9.57-1.44,78.23,78.23,0,0,1,12.56,1.26,82,82,0,0,0,13.46,1.26q8.31,0,25.83-1.08,9.95-.72,13.73-.72H657l-.36,5.6a23.58,23.58,0,0,1-8,1.53,41.5,41.5,0,0,0-9.39,1.54q-6.51,2-7.77,3.43-4.34,4.71-4.33,9.58l2,57.09,1.45,26.19-.18,7.59,1.08,36.31q1.08,37.23,1.08,64.68,0,6-.72,25.83l-8.42.73q-6.33-7.23-43.56-45.53-8.67-8.85-11.74-12.47l-15.55-17.88q-9-9.93-11.74-12.65l-4-4q-19.7-22.4-51.15-56-8.49-9-24.94-28.18-10.31-12.11-13-14.81a64.66,64.66,0,0,0-7.41-6.15l-.54,6.15q0,35.22,1.81,97.19l1.26,59.8q.18,7.59.9,14.63l6.33,1.45q17.16,1.62,33.78,4.88a16,16,0,0,0,2.17,1.62l-.18,6.87a16.69,16.69,0,0,1-4.7.9,40.56,40.56,0,0,1-4.88-.36q-17.88-1.44-43.54-1.44-18.06,0-31.79.9l-2.53.18a43.58,43.58,0,0,1-4.7-.36l-.18-5.42,4.7-2.17,8.49-1.26q11.38-1.64,16.62-3.62A13.19,13.19,0,0,0,429,592q2-12.47,2-36.5,0-11.19-.55-41V489.88l-.36-51.3q-.36-34.33-2.35-40.47a12,12,0,0,0-4.51-5.78q-6.87-4.87-18-6.14A121.81,121.81,0,0,1,390.85,384Z"/><path class="cls-2" d="M912.24,385.64l2,27.46q1.08,12.47,1.08,17l-5.06.9q-12.11-27.47-30.08-41.19t-44-13.73q-31.8,0-49.5,7.77-25.65,11-43.9,38.3T724.53,487.9q0,22.22,6.69,39.92a120.78,120.78,0,0,0,18.88,33,128.57,128.57,0,0,0,28.81,26.47,80.29,80.29,0,0,0,25.84,11.2q8.49,2,25.29,2a106.64,106.64,0,0,0,24-3.07q13.18-3.07,19.87-8.22a26.67,26.67,0,0,0,9.12-11.65q2.45-6.51,2.44-25.3,0-31.25-4.15-36.4T855.15,509l-7.23-.54-4.87.18c-.73-.11-1.69-.3-2.89-.54l-2.71-4.51a4.08,4.08,0,0,1,1.26-2.35q9.39-1.45,40.83-1.45,7.05,0,22.94.36l18.61.73,16.8-.19q4.89,0,11.75.37a2.57,2.57,0,0,1,1.62.63,2.49,2.49,0,0,1,.36,1.53,18.71,18.71,0,0,1-.9,5.06A60,60,0,0,1,939,509.94l-11.75-.18a12.06,12.06,0,0,0-9.57,4.15q-1.81,2-1.81,13.55l.18,23.67q0,24.39-2,31.07a15.1,15.1,0,0,1-4.52,7.14q-3.43,3.17-14.45,7.5a140.91,140.91,0,0,1-28.55,8.49,268.31,268.31,0,0,1-46.07,4.15q-35.76,0-58.62-9.12A117.57,117.57,0,0,1,722.45,575q-16.53-16.26-23.57-32.88a122.91,122.91,0,0,1-10.66-49.69q0-31.61,16.71-61.87t53.93-49.23q26.19-13.37,71.18-13.37,31.07,0,50.85,5.42T912.24,385.64Z"/><path class="cls-2" d="M965.53,602.21a8.69,8.69,0,0,1,3.08-1.94,56.35,56.35,0,0,1,10.47-1.45q17.53-1.08,21.68-3.26,2.54-3.62,2.53-10.13l-.18-12.67.18-46-.36-21.72.18-45.42-.9-51.57q-.18-18.46-2.35-20.82-3.25-3.43-19.33-4a83.86,83.86,0,0,1-12.1-1.08c-1.57-.84-2.35-1.92-2.35-3.25a8.57,8.57,0,0,1,.9-3.43,6,6,0,0,1,2.89-.91c1.69,0,3.73.06,6.14.18a215.85,215.85,0,0,0,22,1.09l13.37-.36,31.8.72q23.85,0,37.22-.54t18.06-.55q4.15,0,20.6.73l25.65-.18,3.07.54,15-.54,1.8.9a9.65,9.65,0,0,1,1.27,3.07,56.29,56.29,0,0,1-.81,7.77,60.53,60.53,0,0,0-.82,6.5q0,18.8,1.27,31.8a1.75,1.75,0,0,1-1.07,1.45,11,11,0,0,1-3.54-.55,95.28,95.28,0,0,1-5.33-12.1,140.23,140.23,0,0,0-10-20.05q-4.52-7.59-7-9T1128,384q-1.63,0-16.45-.36-4-.18-7.78-.18l-51.52,1.08h-4.52q-9.95,0-11.93,2.53-3.08,4.34-3.08,25.47,0,2.18.9,43.36V481a16.53,16.53,0,0,0,4.34.54h3.07c2,0,5.06.07,9,.18q9.4.38,12.65.37a34.77,34.77,0,0,0,3.79-.18q19.51-.72,50.23-.73,9.57-1.62,11.2-3.79,2.71-3.26,4.07-17t6-15.54a10.36,10.36,0,0,1,4.33.9,11.3,11.3,0,0,1,.36,2.71,38.29,38.29,0,0,1-.36,4.16q-.9,6.69-.9,41.91,0,9.41,1,21t1,12.46a22.73,22.73,0,0,1-.55,4.34,5.61,5.61,0,0,1-2.34.72h-1.27q-2.89-5.05-5.6-15.71-4.7-18.25-9.84-22.86t-16.72-4.61c-1.68,0-4.76.1-9.21.28s-11.08.27-19.87.27h-11.75q-25.11,0-32.88,1.08l-.18,6,.18,33.3-.18,21,.18,20.44q.18,18.46,2.35,21.36,3.07,4,13.37,4l11-.18c1,0,4.73.09,11.29.27s14.66.27,24.3.27q34.88,0,46.43-3a40.27,40.27,0,0,0,19.06-10.6q7.5-7.62,18.88-32.81,3.43-7.44,6.87-7.44a6.4,6.4,0,0,1,3.61,1.45q-5.25,17.88-6,23.48a201.06,201.06,0,0,0-2.35,25.84,16.52,16.52,0,0,1-2.89,9.94h-4l-50.76.54-22.77-.18-54.19.72h-22q-4.17,0-7.77.18-32.52,1.44-47.88,1.45c-1.81,0-3-.3-3.7-.89a3.32,3.32,0,0,1-1-2.64Z"/><path class="cls-2" d="M1201.3,606.05a11,11,0,0,1,1.44-4.88,166.45,166.45,0,0,1,27.46-5.06q8.85-.72,11.39-4,1.8-2.34,2.16-17.36L1245,527l-.18-32.36.18-42.31V441.16q.18-38.16-.37-47.56a20.78,20.78,0,0,0-1.45-5.06,41.82,41.82,0,0,0-7.89-2.89q-3.18-.72-28.41-5.25c-.12-1.32-.18-2.28-.18-2.89s.06-1.68.18-2.89q3.43,0,11.22.41l27.5,1,15.93.36,4.7-.18c.61,0,2.35.12,5.25.36q10.68,0,12.3-.18l14.48-1.08q14.65,0,20.63.54a31.83,31.83,0,0,1-1.27,7q-2,.38-18.78,1T1279.52,386q-4.15,2.36-4.15,14.46,0,2.9-.36,11.74V423l.18,33.42v11.38l.36,59.8-.54,51,.18,11.2q0,5.41,1.81,6.69,4.5.18,26.55.36h12.29l31.25-1.09q12.29-.36,17.53-2.44t17.52-12.19a58.08,58.08,0,0,0,11.56-13.37c.6-1,1.63-2.41,3.07-4.34q3.43-4.7,9.22-18.78h6q-1.08,6.5-2.35,12.28-5.24,25.47-7.23,42.46c-.24,2.41-.48,4.63-.72,6.68l-67.57-2q-87.07,0-103.33,1.63-5.07.36-10.66.36Z"/><path class="cls-2" d="M1479,670.73a11.2,11.2,0,0,1,6.14-2.35q8.31,0,19,9.57c1.2,1.09,2.1,1.87,2.71,2.35l.9.91a14,14,0,0,0,9,3.61q6.87,0,13.73-4.7a33.5,33.5,0,0,0,11-13,100.14,100.14,0,0,0,8.22-26q2.63-14.46,2.62-35.05l-.18-28.18.36-19.33q0-19.69-1.44-60.71L1550,430.27l.18-34.87a16,16,0,0,0-1.63-8.13,9.39,9.39,0,0,0-3.88-3.25,19.32,19.32,0,0,0-8-1.63l-13.37-.9q-6.33,0-8.67-1.27a17.16,17.16,0,0,1-.73-4.15l.18-2.17q4,0,9.76.36,11.21.54,21.86.54,5.05,0,13.37-.18,6.32-.36,8.85-.36h26.56q5.6,0,12.1.54a45.43,45.43,0,0,1-.36,6.51q-15.54.72-19.69,2.17a12.9,12.9,0,0,0-6.14,4q-1.27,1.62-1.27,6.32l-.72,18.79.18,4.52q.36,3.26.36,12.46v7.23q0,6.33.18,11.2.36,7.23.36,8.67,0,1.64-.36,8.49c-.12,1.33-.18,2.47-.18,3.44l2.17,50.22-.36,32.34v21q0,18.06-6.87,50.4a119.17,119.17,0,0,1-18.24,42.73q-13.2,19.23-26,26.28t-34.14,7q-11.39,0-18.25-5.42a12.35,12.35,0,0,1-4.7-10.12A14.47,14.47,0,0,1,1479,670.73Z"/><path class="cls-2" d="M1644.1,489.52q0-18.42,4.43-32.79t14.9-31.16a104.14,104.14,0,0,1,25.29-28.09q14.82-11.3,41-20,18.43-6,46.61-6a137.77,137.77,0,0,1,37.13,5.06,129.9,129.9,0,0,1,33,14.09q14.82,9,29.63,27.82a96.24,96.24,0,0,1,15.54,28,122.7,122.7,0,0,1,6.86,40.64q0,23.85-4.6,39.57a105.7,105.7,0,0,1-15.45,31.07q-8.49,11.93-29.09,27.46-13.72,10.49-34.14,16.9a146.55,146.55,0,0,1-44.08,6.41q-24,0-42.82-5.6t-31.35-13.64q-12.56-8-25.83-23.76A112.84,112.84,0,0,1,1651,530.89,120.59,120.59,0,0,1,1644.1,489.52Zm125.38,112.37a125.39,125.39,0,0,0,31.53-4.24,79,79,0,0,0,29-14.09,76.19,76.19,0,0,0,19.78-22.4q7.14-12.55,11.48-32.25a182.74,182.74,0,0,0,4.33-39.39,168.1,168.1,0,0,0-7.22-48.59,87.81,87.81,0,0,0-18.25-32.61,86.5,86.5,0,0,0-30.53-22.23,93.91,93.91,0,0,0-38.12-7.85,97.83,97.83,0,0,0-32.16,5.42q-15.72,5.41-25.84,13.82t-18.78,23.84a133.15,133.15,0,0,0-13.19,34.06Q1677,474,1677,488.26q0,15,4.52,34t12.37,32.88a102.72,102.72,0,0,0,19.33,24.66,80.72,80.72,0,0,0,56.28,22.13Z"/><path class="cls-2" d="M2021.68,373a17.94,17.94,0,0,1,.91,4.69A14.46,14.46,0,0,1,2022,381a30.82,30.82,0,0,1-7.58,1.26c-.85,0-2.26-.09-4.25-.27s-3.58-.27-4.79-.27q-8.31,0-13.18,3.25a8.14,8.14,0,0,0-4,5.25l-1.81,20.61.55,89.5q.18,49.19,3.25,61.21a44.71,44.71,0,0,0,10.3,19.8q7.21,7.77,21.77,12.83a85.58,85.58,0,0,0,28.27,5.07q30.7,0,47.06-8.86t23.49-24.5q7.13-15.65,7.13-47.47,0-.9-.54-14.46v-5.24q0-2.9.36-11.3c.24-5.61.37-8.89.37-9.86l-2.71-51.89q-1.27-26.22-3-30.92a14.58,14.58,0,0,0-5-7.05q-7.05-5.07-26.74-9a19.11,19.11,0,0,1-1.09-5.24,136.9,136.9,0,0,1,13.91-.72q7.23,0,15.18.54,11.93.9,13,.9l28.54-.9,5.6.18-.18,6.5q-22.22,2.89-26.55,6.78T2135.14,401q0,5.6.72,24.41l1.27,37.42-.18,14.83.54,18.8q0,35.44-2,48.27-2.89,17.91-8.22,28.39A59.71,59.71,0,0,1,2111.83,592q-10.11,8.41-27,13.84a108.86,108.86,0,0,1-33.34,5.42q-25.83,0-37.21-3.62-20.79-6.31-33.06-16.45t-17-20.25q-6.32-13.38-6.32-39.05V519.44l-.54-50.63.54-40.86V400.47q0-10.49-2.89-14.64a6.58,6.58,0,0,0-5.78-2.9l-10.66.18q-11.92,0-15.18-2.53a9.25,9.25,0,0,1-.54-2.89,3.11,3.11,0,0,1,1.09-2.53,8.07,8.07,0,0,1,4.87-1.44h4.7l12.1-.18h28.55Z"/><path class="cls-2" d="M2188.6,599.37q26.27-3.07,29.67-4.34,2.34-.9,4.32-5.41v-2q0-4.51,1.44-32.67c.23-5.3.36-10.47.36-15.52l-.55-21.48.37-24.37-.19-45.31.19-32.49q.16-20.58-3.17-25.1t-17.25-6.4q-13.92-1.91-15.36-2.8a3.16,3.16,0,0,1-1.44-2.89,13,13,0,0,1,.54-3.25c1.2-1.09,4-1.69,8.31-1.81.6,0,2.26-.15,5-.45a70,70,0,0,1,7.68-.45h14.81l47.52-.55q40.28,0,56.45,6A52.05,52.05,0,0,1,2353,398.2a55.42,55.42,0,0,1,9.57,31.7q0,33.25-34.82,50.77a93.09,93.09,0,0,0-9.39,5.42q6.13,13,17.14,31.22l22.9,39.34q13.74,21.72,19,27.24a43.28,43.28,0,0,0,12.73,9.14q7.5,3.62,25.22,6.88c.11,1.2.18,2.17.18,2.89s-.07,1.62-.18,2.71q-24.76.36-58,.36-2.34,0-6.5-.36-12.82-24.62-30.17-54.1l-26.74-48.86q-5.42-7.6-8.94-9.5a19.7,19.7,0,0,0-9.31-1.9l-15.35.18-5.06-.18q-.54,5.79-.54,23.67V576.6a33.48,33.48,0,0,0,1.44,9.58,11.52,11.52,0,0,0,5,5.51q3.53,2.07,20.33,6.23l7.4,1.81a7.54,7.54,0,0,1,1.45,4.87,43.44,43.44,0,0,1-6.86.91q-16.23,0-22.9-.36c-2.29-.12-4.15-.18-5.59-.18l-24.53.36-24-.18q-1.62,0-16.41.54l-3.6-.72-.36-1.81C2186.09,602.08,2186.92,600.81,2188.6,599.37Zm67-118.16q4.88.18,7.23.18a171.63,171.63,0,0,0,30-3.06q11.92-2.34,19.33-7.67t12.37-15.78a49.89,49.89,0,0,0,5-21.64q0-12.25-7.77-26-6-10.47-20.14-17.49t-34.06-7q-4.87,0-12.64.54c-.49,6.26-.72,11.06-.72,14.43l.9,33.72-.18,13.89Q2254.92,459.39,2255.64,481.21Z"/><path class="cls-2" d="M2414.44,384l-.18-8.67q28,0,41-1.45,5.05-.54,7.05-.54c1.08,0,2.71.06,4.88.18A101.1,101.1,0,0,1,2481.29,388q1.44,1.63,3.25,3.61l38.12,42.1,5.42,6.5q11.57,13.56,21.05,23.13t36.94,39.92l43.18,47.88q6.32,7.05,16.26,17.52l.18-2.89q-1.08-25.11-1.08-26.55l.72-10.84-.36-17v-7.76q0-7.41-1.27-45.71-.18-5.24-1.44-19.79T2641,412.56q0-19.87-2.35-23.12-1.62-2.35-15.35-4.88-3.26-.18-10.12-1.08-8.13-.37-9.57-.91c-1-.36-1.93-1.38-2.89-3.07a16.77,16.77,0,0,1,1.62-5.42,33.69,33.69,0,0,1,9.58-1.44,78.12,78.12,0,0,1,12.55,1.26,82.12,82.12,0,0,0,13.46,1.26q8.31,0,25.84-1.08,9.93-.72,13.73-.72h3.07l-.36,5.6a23.58,23.58,0,0,1-7.95,1.53,41.5,41.5,0,0,0-9.4,1.54q-6.49,2-7.77,3.43-4.34,4.71-4.33,9.58l2,57.09,1.44,26.19-.18,7.59,1.08,36.31q1.1,37.23,1.09,64.68,0,6-.72,25.83l-8.43.73q-6.32-7.23-43.55-45.53-8.68-8.85-11.75-12.47l-15.54-17.88q-9-9.93-11.75-12.65l-4-4q-19.69-22.4-51.14-56-8.51-9-24.94-28.18-10.3-12.11-13-14.81a63,63,0,0,0-7.41-6.15l-.54,6.15q0,35.22,1.81,97.19l1.26,59.8q.18,7.59.91,14.63l6.32,1.45q17.16,1.62,33.78,4.88a16.68,16.68,0,0,0,2.17,1.62l-.18,6.87a16.63,16.63,0,0,1-4.7.9,40.41,40.41,0,0,1-4.87-.36q-17.9-1.44-43.54-1.44-18.08,0-31.8.9l-2.53.18a43.76,43.76,0,0,1-4.7-.36l-.18-5.42,4.7-2.17,8.49-1.26q11.38-1.64,16.62-3.62a13.13,13.13,0,0,0,5.6-3.79q2-12.47,2-36.5,0-11.19-.54-41V489.88l-.36-51.3q-.37-34.33-2.35-40.47a12,12,0,0,0-4.52-5.78q-6.87-4.87-18-6.14A122.11,122.11,0,0,1,2414.44,384Z"/><path class="cls-2" d="M2703.86,602.21a8.76,8.76,0,0,1,3.07-1.94,56.63,56.63,0,0,1,10.48-1.45q17.52-1.08,21.68-3.26,2.53-3.62,2.53-10.13l-.18-12.67.18-46-.36-21.72.18-45.42-.9-51.57q-.18-18.46-2.35-20.82-3.26-3.43-19.33-4a84.14,84.14,0,0,1-12.11-1.08c-1.56-.84-2.35-1.92-2.35-3.25a8.44,8.44,0,0,1,.91-3.43,6,6,0,0,1,2.89-.91q2.52,0,6.14.18a215.7,215.7,0,0,0,22,1.09l13.37-.36,31.8.72q23.85,0,37.21-.54t18.07-.55q4.15,0,20.6.73l25.65-.18,3.07.54,15-.54,1.8.9a10.14,10.14,0,0,1,1.27,3.07,55.11,55.11,0,0,1-.82,7.77,62.21,62.21,0,0,0-.81,6.5q0,18.8,1.27,31.8a1.75,1.75,0,0,1-1.07,1.45,11,11,0,0,1-3.54-.55,95.28,95.28,0,0,1-5.33-12.1,140.23,140.23,0,0,0-10-20.05q-4.52-7.59-7.05-9T2866.35,384q-1.63,0-16.46-.36-4-.18-7.77-.18l-51.53,1.08h-4.51c-6.64,0-10.61.84-11.94,2.53q-3.07,4.34-3.07,25.47,0,2.18.9,43.36V481a16.53,16.53,0,0,0,4.34.54h3.07c2,0,5.06.07,9,.18q9.39.38,12.65.37a34.9,34.9,0,0,0,3.79-.18q19.52-.72,50.23-.73,9.57-1.62,11.2-3.79,2.7-3.26,4.06-17t6-15.54a10.41,10.41,0,0,1,4.34.9,11.3,11.3,0,0,1,.36,2.71,38.29,38.29,0,0,1-.36,4.16q-.9,6.69-.9,41.91,0,9.41,1,21t1,12.46a23.41,23.41,0,0,1-.54,4.34,5.6,5.6,0,0,1-2.35.72h-1.26q-2.89-5.05-5.6-15.71-4.7-18.25-9.85-22.86t-16.71-4.61c-1.69,0-4.76.1-9.21.28s-11.08.27-19.88.27h-11.74q-25.11,0-32.88,1.08l-.18,6,.18,33.3-.18,21,.18,20.44q.18,18.46,2.35,21.36,3.08,4,13.37,4l11-.18q1.44,0,11.29.27t24.3.27q34.86,0,46.43-3a40.27,40.27,0,0,0,19.06-10.6q7.5-7.62,18.88-32.81,3.44-7.44,6.86-7.44a6.4,6.4,0,0,1,3.62,1.45q-5.25,17.88-6,23.48a201.06,201.06,0,0,0-2.35,25.84,16.52,16.52,0,0,1-2.89,9.94h-4l-50.76.54-22.77-.18-54.2.72h-22q-4.16,0-7.77.18-32.51,1.44-47.87,1.45c-1.81,0-3-.3-3.7-.89a3.32,3.32,0,0,1-1-2.64Z"/><path class="cls-2" d="M2934,372.27h8.67q4.7,0,20.59.49,24.57,1,40.83,1l21.14-.36a50.72,50.72,0,0,1,8.67.72,4.64,4.64,0,0,1,1.27,3.07v2l-4.55,2.17h-2l-10.18.18-5.27-.18q-6.18,0-10,2.71c-1.93,1.32-2.89,2.71-2.89,4.15s.84,3.56,2.53,6c.6,1,1.56,2.41,2.89,4.34q3.61,6.15,9.58,14.29,8.49,11.92,18.08,28.2,3.8,6.51,8,12.48L3068.84,495q2.72-3.42,7.43-10.12l26.07-37.43,30-45q4-6.13,4.7-9a12.66,12.66,0,0,0,.36-3.07,7.13,7.13,0,0,0-3.43-6.14q-5.61-3.79-24.21-5.6c-.84-.12-2-.3-3.43-.54a7.6,7.6,0,0,1-1.27-3.62,16.86,16.86,0,0,1,.18-2.35l9.4-.18,34,.91,27.28-.55c.72,0,3.25.07,7.59.18l-.54,6.33a21.07,21.07,0,0,1-4,.54l-4.33.54c-.73.12-1.87.24-3.44.36a25.34,25.34,0,0,0-6,3.07,596.17,596.17,0,0,0-45.16,52.94q-18.62,24.93-31.44,45.34-4.15,6.69-6.68,9.94-4.71,6.15-5.6,9-2,7.06-2,21.36,0,56.29,2,66.42,1.08,5.07,2.89,6.16,4.69,2.35,37.39,5.61v2.11a13.61,13.61,0,0,1-1.26,5.11l-46.33-2L3038.14,607h-25.33q-3.63,0-8-.18a9.49,9.49,0,0,1-.73-2.89,8.5,8.5,0,0,1,.55-2.53,5,5,0,0,1,2.54-1.26l23.4-3.61q12.15-4,13.61-5.42,2.18-2.17,2.72-6.69.18-3.25.18-50.22,0-17.52-1.17-21.41t-7.68-13.64l-23.67-36-40.29-58.72q-10.47-15.24-18.24-20.44-3.43-2.33-17.17-3.59a38.51,38.51,0,0,1-4.33-.36Z"/></svg>