<svg id="Layer_1" data-name="Layer 1" xmlns="http://www.w3.org/2000/svg" xmlns:xlink="http://www.w3.org/1999/xlink" viewBox="0 0 3218.66 740.74"><defs><style>.cls-1{fill:url(#linear-gradient);}</style><linearGradient id="linear-gradient" x1="753.01" y1="1369.46" x2="2491.39" y2="-368.92" gradientUnits="userSpaceOnUse"><stop offset="0" stop-color="#f4b490"/><stop offset="1" stop-color="#ad7a5b"/></linearGradient></defs><path class="cls-1" d="M1495.86,241.91,1421.39,79.74V208.51q0,17.76,3.84,22.17,5.25,6,16.62,6h6.83v5.26h-67.09v-5.26h6.82q12.22,0,17.34-7.39,3.13-4.55,3.13-20.75V82.58q0-12.8-2.84-18.48-2-4.12-7.32-6.89t-17.13-2.77V49.18h54.58L1506.1,200l68.79-150.8h54.58v5.26h-6.68q-12.37,0-17.48,7.39-3.13,4.55-3.13,20.75V208.51q0,17.76,4,22.17,5.25,6,16.63,6h6.68v5.26H1547.6v-5.26h6.82q12.38,0,17.34-7.39,3.13-4.55,3.13-20.75V79.74l-74.34,162.17Z"/><path class="cls-1" d="M1774.3,49.18h67.23v5.26h-3.7q-3.69,0-10.8,3.27a42,42,0,0,0-12.93,9.38q-5.83,6.1-14.36,19.89l-46.47,73.2v48.33q0,17.76,4,22.17,5.4,6,17,6h6.26v5.26h-81.87v-5.26h6.82q12.23,0,17.34-7.39,3.12-4.55,3.13-20.75V162.88L1673.1,82.15q-9.37-14.2-12.72-17.76t-13.86-8.53q-2.83-1.43-8.24-1.42V49.18h82.44v5.26h-4.27a24.87,24.87,0,0,0-12.29,3.12,10.13,10.13,0,0,0-5.62,9.38q0,5.11,8.68,18.48l40.22,62.11,37.81-59.41q8.52-13.35,8.52-19.9a12.63,12.63,0,0,0-2.06-7.1,13.77,13.77,0,0,0-5.9-4.91q-3.82-1.77-11.51-1.77Z"/><path class="cls-1" d="M180.83,531.92H79.51l-17.75,41.3Q55.19,588.47,55.2,596q0,6,5.69,10.51T85.5,612.4v7.14H3.09V612.4q16.4-2.89,21.23-7.53,9.84-9.25,21.81-37.63l92.05-215.38h6.76L236,569.56q11,26.24,20,34.06t25,8.78v7.14H177.75V612.4q15.63-.76,21.13-5.21t5.5-10.81q0-8.49-7.72-26.82Zm-5.4-14.28L131,411.88,85.5,517.64Z"/><path class="cls-1" d="M280.23,357.84h71l160,196.28V403.2q0-24.13-5.41-30.11-7.14-8.1-22.58-8.11h-9.07v-7.14h91.1V365H556q-16.6,0-23.54,10-4.26,6.18-4.25,28.18V623.79h-7L348.74,413V574.19q0,24.12,5.21,30.1,7.33,8.12,22.58,8.11h9.26v7.14H294.7V612.4h9.07q16.78,0,23.74-10,4.25-6.17,4.24-28.17v-182q-11.38-13.32-17.27-17.57t-17.27-7.91q-5.59-1.74-17-1.74Z"/><path class="cls-1" d="M813.46,351.86l6.76,82.6h-6.76Q803.23,403.59,787,388q-23.35-22.57-60-22.58-50,0-76,39.56-21.81,33.39-21.8,79.52,0,37.44,14.47,68.32T681.55,598Q705,612.41,729.71,612.4a106.17,106.17,0,0,0,28-3.67,111.44,111.44,0,0,0,26-10.8V522.27q0-19.68-3-25.76a20.23,20.23,0,0,0-9.26-9.27q-6.27-3.18-22.1-3.18v-7.33H850.71v7.33h-4.82q-15.06,0-20.65,10-3.87,7.14-3.86,28.17v80.09a196,196,0,0,1-43.81,17.57q-21.62,5.6-48.06,5.59-75.84,0-115.21-48.63-29.53-36.48-29.53-84.15a140.7,140.7,0,0,1,16.59-66.19q19.7-37.64,54-57.9,28.76-16.78,67.94-16.79a133.23,133.23,0,0,1,25.95,2.32q11.69,2.31,33.1,10.22,10.82,4.07,14.48,4.06a7.73,7.73,0,0,0,6.27-3.38q2.61-3.37,3.18-13.22Z"/><path class="cls-1" d="M938.91,372.12V475.57h57.51q22.38,0,29.91-6.76,10-8.87,11.2-31.26h7.14v91.09h-7.14q-2.7-19.11-5.41-24.51a24.13,24.13,0,0,0-11.38-10.61q-7.92-3.87-24.32-3.86H938.91v86.26q0,17.37,1.54,21.14a12.12,12.12,0,0,0,5.41,6q3.85,2.22,14.66,2.22h44.39q22.2,0,32.23-3.09t19.3-12.16q12-12,24.51-36.09h7.72l-22.58,65.62H864.41V612.4h9.27A36.7,36.7,0,0,0,891.24,608a16.21,16.21,0,0,0,8.39-9.26q2.22-6.18,2.22-25.28v-170q0-24.9-5-30.69-7-7.71-23.16-7.72h-9.27v-7.14h201.68l2.9,57.32h-7.53q-4.05-20.64-9-28.37A30.8,30.8,0,0,0,1037.91,375q-7.71-2.89-27.21-2.9Z"/><path class="cls-1" d="M1324.32,547.17l6.36,1.35-22.38,71H1105.65V612.4h9.85q16.59,0,23.74-10.81,4-6.17,4-28.56V404.16q0-24.51-5.41-30.68-7.52-8.5-22.38-8.5h-9.85v-7.14h118.5V365q-20.84-.18-29.24,3.86t-11.48,10.23q-3.09,6.18-3.09,29.53V573q0,16,3.09,22a13.74,13.74,0,0,0,7.14,6q4.83,1.93,30.11,1.93h19.1q30.12,0,42.27-4.44t22.19-15.72Q1314.28,571.49,1324.32,547.17Z"/><path class="cls-1" d="M1462.69,365v-7.14h112.13V365h-9.46q-16,0-23.35,9.46-4.63,6.18-4.63,29.72v128q0,29.53-6.47,47.87a74.35,74.35,0,0,1-22.29,31.94q-15.82,13.61-38.21,13.6-18.14,0-28.56-9T1431.43,596q0-9.46,4.82-14.29a21.06,21.06,0,0,1,14.86-6,17,17,0,0,1,11.1,4q4.92,4.07,12.45,21.62,4.42,10.43,11.38,10.42c3.48,0,6.72-2.12,9.75-6.37s4.53-11.77,4.53-22.58V404.16q0-19.87-2.5-26.25-1.93-4.82-8.11-8.29a35.49,35.49,0,0,0-17.56-4.64Z"/><path class="cls-1" d="M1721.69,351.86q50.94,0,88.29,38.69t37.35,96.6q0,59.63-37.64,99t-91.09,39.37q-54,0-90.8-38.4T1591,487.73q0-62.34,42.46-101.71Q1670.34,351.87,1721.69,351.86ZM1718,366q-35.13,0-56.35,26.05-26.45,32.43-26.44,94.95,0,64.08,27.4,98.62,21,26.25,55.58,26.25,36.87,0,60.89-28.76t24-90.7q0-67.17-26.44-100.16Q1755.47,366,1718,366Z"/><path class="cls-1" d="M2051.13,365v-7.14h92.63V365h-9.84q-15.45,0-23.74,12.93-4,6-4,27.79V511.85q0,39.38-7.82,61.08t-30.68,37.25q-22.87,15.54-62.24,15.54-42.86,0-65-14.86a80.52,80.52,0,0,1-31.46-40q-6.18-17.17-6.18-64.46V404.16q0-24.12-6.65-31.65T1874.54,365h-9.85v-7.14h113.1V365h-10q-16.21,0-23.16,10.23-4.81,6.94-4.82,29V518.22a250.7,250.7,0,0,0,2.8,34.93q2.79,19.68,10.13,30.69T1973.83,602q13.8,7.14,33.87,7.14,25.66,0,45.93-11.19t27.7-28.66q7.43-17.47,7.43-59.16V404.16q0-24.51-5.41-30.68-7.51-8.5-22.38-8.5Z"/><path class="cls-1" d="M2415.11,619.54h-69.86l-88.59-122.36q-9.84.39-16,.39c-1.67,0-3.47,0-5.4-.1s-3.93-.16-6-.29v76q0,24.71,5.4,30.69,7.34,8.49,22,8.49h10.23v7.14H2154.76V612.4h9.84q16.61,0,23.74-10.81,4-6,4.06-28.37V404.16q0-24.71-5.41-30.68-7.53-8.5-22.39-8.5h-9.84v-7.14h95.34q41.68,0,61.47,6.08a70.31,70.31,0,0,1,33.58,22.39q13.8,16.31,13.8,38.89a61.15,61.15,0,0,1-15.73,41.88q-15.73,17.76-48.73,25.09l54,75.07q18.53,25.86,31.84,34.35t34.74,10.81ZM2229.26,485c2.44,0,4.56,0,6.37.1s3.28.1,4.44.1q37.42,0,56.45-16.21t19-41.3q0-24.51-15.35-39.86t-40.62-15.34q-11.2,0-30.3,3.67Z"/><path class="cls-1" d="M2406.42,357.84h71l160,196.28V403.2q0-24.13-5.41-30.11-7.14-8.1-22.58-8.11h-9.07v-7.14h91.1V365h-9.27q-16.61,0-23.54,10-4.26,6.18-4.25,28.18V623.79h-7L2474.94,413V574.19q0,24.12,5.21,30.1,7.33,8.12,22.58,8.11H2512v7.14H2420.9V612.4H2430q16.79,0,23.74-10,4.24-6.17,4.24-28.17v-182q-11.38-13.32-17.27-17.57t-17.27-7.91q-5.6-1.74-17-1.74Z"/><path class="cls-1" d="M2779.67,372.12V475.57h57.51q22.4,0,29.92-6.76,10-8.87,11.19-31.26h7.14v91.09h-7.14q-2.7-19.11-5.4-24.51a24.2,24.2,0,0,0-11.39-10.61q-7.92-3.87-24.32-3.86h-57.51v86.26q0,17.37,1.55,21.14a12,12,0,0,0,5.4,6q3.86,2.22,14.67,2.22h44.39q22.18,0,32.23-3.09T2897.2,590q12-12,24.51-36.09h7.72l-22.58,65.62H2705.18V612.4h9.26A36.67,36.67,0,0,0,2732,608a16.23,16.23,0,0,0,8.4-9.26q2.22-6.18,2.22-25.28v-170q0-24.9-5-30.69-6.95-7.71-23.16-7.72h-9.26v-7.14h201.67l2.9,57.32h-7.53q-4-20.64-9-28.37A30.85,30.85,0,0,0,2878.68,375q-7.72-2.89-27.21-2.9Z"/><path class="cls-1" d="M3126.87,357.84h91.28V365h-5q-5,0-14.66,4.44a57.35,57.35,0,0,0-17.57,12.74q-7.91,8.29-19.49,27l-63.11,99.39v65.62q0,24.12,5.41,30.1,7.34,8.12,23.16,8.11h8.49v7.14H3024.19V612.4h9.27q16.59,0,23.54-10,4.24-6.17,4.25-28.17v-62l-71.79-109.62q-12.75-19.31-17.28-24.13t-18.81-11.58q-3.87-1.92-11.2-1.93v-7.14h111.94V365h-5.79a33.78,33.78,0,0,0-16.7,4.25Q3024,373.48,3024,382q0,6.94,11.77,25.09l54.62,84.33,51.34-80.67q11.58-18.14,11.58-27a17.21,17.21,0,0,0-2.8-9.65,18.85,18.85,0,0,0-8-6.65q-5.22-2.41-15.63-2.42Z"/></svg>